<svg width="225" height="87" viewBox="0 0 225 87" fill="none" xmlns="http://www.w3.org/2000/svg">
<g clip-path="url(#clip0)">
<rect opacity="0.5" x="67.9678" y="64.2156" width="74.3808" height="17.9804" fill="#0F122B"/>
<path fill-rule="evenodd" clip-rule="evenodd" d="M98.544 71.838C98.8501 71.5765 98.9813 71.1841 98.9813 70.7046C99.0251 69.702 98.4127 69.179 97.188 69.179H96.2695V72.2739H97.188C97.8004 72.2739 98.2378 72.0996 98.544 71.838Z" fill="#00CFA6"/>
<path fill-rule="evenodd" clip-rule="evenodd" d="M224.381 60.548H0V73.7561C0 80.5563 5.55485 86.0488 12.4219 86.0488H212.047C218.87 86.0488 224.468 80.5127 224.468 73.7561V60.548H224.381ZM100.687 78.0716C99.9873 78.6383 98.9376 78.9434 97.5379 78.9434H94.2138V67.5226H97.4067C98.5877 67.5226 99.4625 67.7841 100.075 68.2636C100.687 68.7867 100.993 69.4842 100.993 70.3996C100.993 70.9663 100.906 71.4458 100.643 71.8381C100.381 72.2304 100.075 72.5355 99.5937 72.7971C100.206 72.9714 100.731 73.3202 101.125 73.7561C101.518 74.2356 101.693 74.8459 101.693 75.6305C101.737 76.6767 101.387 77.4613 100.687 78.0716ZM115.865 78.9434H109.129V67.5226H115.69V69.397H111.316V72.0996H115.252V74.0176H111.316V77.0254H115.865V78.9434ZM131.479 69.5277H127.937V78.8998H125.75V69.5277H122.25V67.479H131.479V69.5277Z" fill="#00CFA6"/>
<path fill-rule="evenodd" clip-rule="evenodd" d="M97.6254 73.9305H96.2695V77.2435H97.538C98.2815 77.2435 98.8064 77.1127 99.1563 76.8075C99.5062 76.5024 99.6374 76.1101 99.6374 75.587C99.6374 75.1075 99.4625 74.6716 99.1563 74.3665C98.8501 74.0613 98.369 73.9305 97.6254 73.9305Z" fill="#00CFA6"/>
<path d="M59.7914 7.27972C59.7914 11.1593 56.4673 14.5594 52.487 14.5594C48.5505 14.5594 45.1826 11.2901 45.1826 7.27972C45.1826 3.26933 48.5068 0 52.487 0C56.6422 0.0435911 59.7914 3.35652 59.7914 7.27972Z" fill="#FF2400"/>
<path d="M104.93 19.7904C104.93 8.76182 95.7447 0 84.5476 0C73.3504 0 64.2089 8.76182 63.9902 19.7032V54.3581H79.2114V20.0955C79.2114 17.0005 81.7483 14.4287 84.7663 14.4287C87.9155 14.4287 90.3211 16.9134 90.3211 20.0955V54.3581H104.93V53.094V19.7904Z" fill="#FF2400"/>
<path d="M138.128 34.6987V1.2207H153.568V34.35C153.568 37.4449 155.886 40.0168 159.123 40.0168C162.097 40.0168 164.677 37.5321 164.677 34.35V1.2207H179.286V34.5243C179.286 45.5529 169.926 54.4019 158.729 54.4019C147.532 54.3583 138.39 45.5965 138.128 34.6987Z" fill="#FF2400"/>
<path d="M59.7914 18.8313H45.1826V54.3145H59.7914V18.8313Z" fill="#FF2400"/>
<path d="M109.17 20.5318V33.2168H133.926V20.5318H109.17Z" fill="#FF2400"/>
<path d="M35.0349 5.84121C31.0547 1.87442 26.1997 0 20.2512 0C17.3644 0 14.6088 0.610276 11.6346 1.87442C8.87901 3.09497 6.60459 4.79502 4.63633 7.10535C1.44339 10.8542 0 15.6928 0 21.752V54.3581H14.5651V22.2315C14.5651 17.0005 16.4896 14.5158 20.3386 14.5158C22.0007 14.5158 23.2691 15.1261 24.3189 16.1723C25.3686 17.2185 25.981 18.4826 25.981 20.1391C25.981 21.6212 25.3686 23.0597 24.3189 24.1059C23.2691 25.1521 21.957 25.7624 20.5136 25.7624C19.945 25.7624 19.3764 25.6316 18.8078 25.4136V40.7577C19.6825 40.8013 20.4261 40.8449 20.951 40.8449C26.5058 40.8449 31.1422 38.7525 35.0787 34.7857C39.0589 30.7753 40.9834 26.0239 40.9834 20.3135C40.9834 14.603 39.0589 9.808 35.0349 5.84121Z" fill="#FF2400"/>
<path d="M218.521 5.84121C214.541 1.87442 209.642 0 203.737 0C200.851 0 198.095 0.610276 195.121 1.87442C192.365 3.09497 190.091 4.79502 188.123 7.10535C184.93 10.8542 183.486 15.6492 183.486 21.7084V54.3145H198.051V22.2315C198.051 17.0005 199.976 14.5158 203.825 14.5158C205.487 14.5158 206.755 15.1261 207.805 16.1723C208.855 17.2185 209.467 18.4826 209.467 20.1391C209.467 21.6212 208.855 23.0597 207.805 24.1059C206.755 25.1521 205.443 25.7624 204 25.7624C203.431 25.7624 202.863 25.6316 202.294 25.4136V40.7577C203.169 40.8013 203.912 40.8449 204.437 40.8449C209.992 40.8449 214.628 38.7525 218.565 34.7857C222.545 30.7753 224.47 26.0239 224.47 20.3135C224.426 14.603 222.501 9.808 218.521 5.84121Z" fill="#FF2400"/>
</g>
<defs>
<clipPath id="clip0">
<rect width="224.425" height="86.0489" fill="white"/>
</clipPath>
</defs>
</svg>
